# xmcd
#
# Track frame offsets:
#	150
#	9921
#	24846
#	36950
#	52025
#	60097
#
# Disc length: 962 seconds
#
# Revision: 0
# Processed by: cddbd v1.5.2PL0 Copyright (c) Steve Scherf et al.
# Submitted via: audiograbber 1.83.01
#
DISCID=3903c006
DTITLE=Tunnelbirds - Tunnelbirds
DYEAR=2012
DGENRE=Alternative
TTITLE0=Mr Death
TTITLE1=House on the hillside
TTITLE2=Waiting on a train
TTITLE3=You
TTITLE4=Diamond
TTITLE5=Since you left the house
EXTD=
EXTT0=
EXTT1=
EXTT2=
EXTT3=
EXTT4=
EXTT5=
PLAYORDER=
